<svg width="1328" height="508" viewBox="0 0 1328 508" fill="none" xmlns="http://www.w3.org/2000/svg">
<g opacity="0.08">
<path fill-rule="evenodd" clip-rule="evenodd" d="M859.131 -8C872.988 1.38508 884.311 14.2308 891.857 29.2962C899.404 14.2308 910.726 1.38508 924.584 -8H1034.15C1047.69 1.1703 1058.81 13.6447 1066.35 28.2654C1073.89 13.6447 1085.01 1.1703 1098.55 -8H1208.12C1221.97 1.38508 1233.29 14.2308 1240.84 29.2962C1248.39 14.2308 1259.71 1.38508 1273.57 -8H1328V25.6011C1327.88 25.3737 1327.77 25.1458 1327.65 24.9174C1318.17 43.6518 1302.84 58.9235 1284.07 68.3293C1302.84 77.7351 1318.17 93.0068 1327.65 111.741C1327.77 111.513 1327.88 111.285 1328 111.058V200.617C1327.88 200.39 1327.77 200.162 1327.65 199.934C1318.35 218.324 1303.4 233.377 1285.1 242.821C1303.4 252.266 1318.35 267.319 1327.65 285.709C1327.77 285.481 1327.88 285.253 1328 285.026V374.585C1327.88 374.358 1327.77 374.13 1327.65 373.902C1318.17 392.636 1302.84 407.907 1284.07 417.313C1302.84 426.719 1318.17 441.99 1327.65 460.725C1327.77 460.497 1327.88 460.269 1328 460.042V516H1273.57C1276.93 513.721 1279.4 511.645 1283.05 509.791C1264.86 500.272 1250.04 485.199 1240.84 466.827C1231.55 485.374 1216.54 500.559 1198.11 510.061C1201.57 511.846 1204.91 513.831 1208.12 516H1098.55C1101.76 513.831 1105.09 511.846 1108.55 510.061C1090.47 500.735 1075.68 485.937 1066.35 467.857C1056.93 486.113 1041.94 501.022 1023.62 510.331C1026.89 512.046 1031.1 513.94 1034.15 516H924.584C927.95 513.721 930.418 511.645 934.065 509.791C915.88 500.272 901.061 485.199 891.857 466.827C882.566 485.374 867.552 500.559 849.129 510.061C852.588 511.846 855.927 513.831 859.131 516H804V460.042C813.503 441.619 828.687 426.605 847.235 417.313C828.687 408.022 813.503 393.008 804 374.585V285.026C813.326 266.946 828.124 252.148 846.204 242.821C828.124 233.495 813.326 218.697 804 200.617V111.058C813.503 92.6352 828.687 77.6204 847.235 68.3293C828.687 59.0381 813.503 44.0235 804 25.6011V-8H859.131ZM966.057 -2.66005C935.356 2.69935 910.917 26.2792 904.291 56.5267C934.993 51.1673 959.433 27.5875 966.057 -2.66005ZM1316.96 499.093C1314.31 463.121 1286.9 434.034 1251.71 428.806C1254.36 464.777 1281.77 493.864 1316.96 499.093ZM1196.57 417.313C1177.79 407.907 1162.46 392.636 1152.98 373.902C1143.51 392.636 1128.18 407.907 1109.4 417.313C1128.18 426.719 1143.51 441.991 1152.98 460.725C1162.46 441.991 1177.79 426.719 1196.57 417.313ZM1229.99 428.657C1194.24 433.46 1166.27 462.842 1163.66 499.242C1199.41 494.439 1227.38 465.057 1229.99 428.657ZM1315.16 347.352C1308.2 377.143 1283.92 400.271 1253.51 405.531C1260.46 375.74 1284.75 352.612 1315.16 347.352ZM1240.84 379.328C1250.31 360.435 1265.71 345.033 1284.6 335.569C1265.71 326.106 1250.31 310.703 1240.84 291.811C1231.38 310.703 1215.98 326.106 1197.08 335.569C1215.98 345.033 1231.38 360.435 1240.84 379.328ZM1077.01 428.802C1112.24 434.022 1139.67 463.141 1142.3 499.144C1107.62 494.157 1080.42 466.012 1076.87 430.885C1076.93 430.192 1076.97 429.498 1077.01 428.802ZM1021.9 417.313C1003.12 407.907 987.795 392.636 978.317 373.902C968.839 392.636 953.51 407.907 934.733 417.313C953.51 426.719 968.839 441.99 978.317 460.725C987.795 441.99 1003.12 426.719 1021.9 417.313ZM988.99 499.334C991.57 462.771 1019.72 433.27 1055.67 428.609C1055.72 429.37 1055.77 430.129 1055.83 430.885C1052.24 466.487 1024.34 494.916 988.99 499.334ZM1228.22 405.712C1221.23 375.478 1196.41 352.071 1165.43 347.171C1172.42 377.405 1197.24 400.812 1228.22 405.712ZM1140.51 347.29C1133.54 377.229 1109.08 400.452 1078.48 405.593C1085.44 375.653 1109.91 352.43 1140.51 347.29ZM1066.35 378.297C1075.85 359.875 1091.04 344.861 1109.58 335.569C1091.04 326.278 1075.85 311.264 1066.35 292.841C1056.85 311.264 1041.66 326.278 1023.11 335.569C1041.66 344.861 1056.85 359.875 1066.35 378.297ZM1316.96 324.077C1314.31 288.105 1286.9 259.018 1251.71 253.79C1254.36 289.761 1281.77 318.848 1316.96 324.077ZM1195.54 242.821C1177.23 233.377 1162.29 218.324 1152.98 199.934C1143.68 218.324 1128.74 233.377 1110.43 242.821C1128.74 252.266 1143.68 267.319 1152.98 285.709C1162.29 267.319 1177.23 252.266 1195.54 242.821ZM1229.99 253.641C1194.24 258.444 1166.27 287.826 1163.66 324.226C1199.41 319.423 1227.38 290.041 1229.99 253.641ZM1253.26 231.605C1284.15 226.365 1308.77 202.69 1315.41 172.294C1284.51 177.534 1259.89 201.208 1253.26 231.605ZM1240.84 204.312C1250.31 185.419 1265.71 170.017 1284.6 160.553C1265.71 151.09 1250.31 135.687 1240.84 116.795C1231.38 135.687 1215.98 151.09 1197.08 160.553C1215.98 170.017 1231.38 185.419 1240.84 204.312ZM967.623 499.039C964.958 463.213 937.732 434.227 902.726 428.86C905.391 464.686 932.617 493.672 967.623 499.039ZM881.007 428.609C845.072 433.268 816.926 462.748 814.327 499.289C850.261 494.63 878.407 465.151 881.007 428.609ZM1054.27 405.823C1047.27 375.3 1022.1 351.712 990.742 347.06C997.744 377.583 1022.92 401.171 1054.27 405.823ZM904.539 405.467C934.755 400.09 958.861 377.057 965.81 347.416C935.595 352.793 911.488 375.826 904.539 405.467ZM891.857 379.328C901.321 360.435 916.723 345.033 935.616 335.569C916.723 326.106 901.321 310.703 891.857 291.811C882.394 310.703 866.991 326.106 848.098 335.569C866.991 345.033 882.394 360.435 891.857 379.328ZM879.245 405.768C872.253 375.389 847.254 351.892 816.088 347.115C823.08 377.493 848.08 400.991 879.245 405.768ZM1020.87 242.821C1002.56 252.266 987.621 267.319 978.317 285.709C969.013 267.319 954.072 252.266 935.764 242.821C954.072 233.377 969.013 218.324 978.317 199.934C987.621 218.324 1002.56 233.377 1020.87 242.821ZM967.623 324.023C964.958 288.197 937.732 259.211 902.726 253.844C905.391 289.67 932.617 318.656 967.623 324.023ZM881.007 253.593C878.407 290.135 850.261 319.614 814.327 324.273C816.926 287.732 845.072 258.252 881.007 253.593ZM1077.01 253.786C1112.24 259.006 1139.67 288.125 1142.3 324.128C1107.62 319.141 1080.42 290.996 1076.87 255.869C1076.93 255.177 1076.97 254.482 1077.01 253.786ZM988.99 324.318C991.57 287.755 1019.72 258.254 1055.67 253.593C1055.72 254.354 1055.77 255.113 1055.83 255.869C1052.24 291.471 1024.34 319.9 988.99 324.318ZM1023.11 160.553C1041.66 169.845 1056.85 184.859 1066.35 203.281C1075.85 184.859 1091.04 169.845 1109.58 160.553C1091.04 151.262 1075.85 136.248 1066.35 117.825C1056.85 136.248 1041.66 151.262 1023.11 160.553ZM1054.51 231.889C1047.85 200.765 1022.34 176.629 990.502 172.009C997.167 203.134 1022.68 227.269 1054.51 231.889ZM904.291 231.542C934.994 226.183 959.433 202.604 966.057 172.356C935.356 177.715 910.917 201.295 904.291 231.542ZM891.857 204.312C901.321 185.419 916.723 170.017 935.616 160.553C916.723 151.09 901.321 135.687 891.857 116.795C882.394 135.687 866.991 151.09 848.098 160.553C866.991 170.017 882.394 185.419 891.857 204.312ZM1228.46 231.781C1221.81 200.944 1196.65 176.99 1165.19 172.118C1171.84 202.954 1197 226.909 1228.46 231.781ZM1140.75 172.233C1109.67 177.351 1084.87 201.121 1078.23 231.666C1109.32 226.547 1134.11 202.778 1140.75 172.233ZM879.487 231.837C847.839 227.089 822.505 203.044 815.847 172.062C847.495 176.81 872.829 200.855 879.487 231.837ZM1316.87 149.048C1313.77 113.596 1286.6 85.0453 1251.79 79.8348C1254.89 115.287 1282.07 143.837 1316.87 149.048ZM1196.57 68.3293C1177.79 58.9235 1162.46 43.6519 1152.98 24.9174C1143.51 43.6519 1128.18 58.9235 1109.4 68.3293C1128.18 77.7352 1143.51 93.0068 1152.98 111.741C1162.46 93.0068 1177.79 77.7351 1196.57 68.3293ZM1229.9 79.6835C1194.54 84.4737 1166.82 113.318 1163.75 149.199C1199.11 144.409 1226.83 115.565 1229.9 79.6835ZM880.924 79.6365C845.377 84.2839 817.469 113.223 814.409 149.246C849.957 144.598 877.864 115.66 880.924 79.6365ZM902.813 79.8886C905.928 115.196 932.919 143.647 967.537 148.994C964.422 113.687 937.431 85.2364 902.813 79.8886ZM934.733 68.3293C953.51 77.7351 968.839 93.0067 978.317 111.741C987.795 93.0067 1003.12 77.7351 1021.9 68.3293C1003.12 58.9236 987.795 43.652 978.317 24.9176C968.839 43.652 953.51 58.9236 934.733 68.3293ZM1076.95 79.8086C1111.86 84.9513 1139.13 113.564 1142.21 149.1C1107.57 144.079 1080.41 115.952 1076.87 80.8525C1076.9 80.5051 1076.92 80.157 1076.95 79.8086ZM989.073 149.291C992.116 113.198 1020.1 84.2062 1055.74 79.6174C1055.76 80.0298 1055.79 80.4415 1055.83 80.8525C1052.24 116.428 1024.39 144.841 989.073 149.291ZM1054.51 56.8737C1022.68 52.2529 997.167 28.1179 990.502 -3.00706C1022.34 1.61374 1047.85 25.7487 1054.51 56.8737ZM1253.26 56.5892C1284.15 51.3493 1308.77 27.6741 1315.41 -2.72251C1284.51 2.51741 1259.89 26.1926 1253.26 56.5892ZM1228.46 56.7655C1221.81 25.9284 1196.65 1.97396 1165.19 -2.89873C1171.84 27.9383 1197 51.8927 1228.46 56.7655ZM1140.75 -2.78309C1109.67 2.33587 1084.87 26.1052 1078.23 56.6498C1109.32 51.5308 1134.11 27.7615 1140.75 -2.78309ZM815.847 -2.95379C822.505 28.0277 847.839 52.0729 879.487 56.8205C872.829 25.839 847.495 1.79372 815.847 -2.95379Z" fill="#3374A5"/>
</g>
<g opacity="0.08">
<path fill-rule="evenodd" clip-rule="evenodd" d="M55.1309 -8C68.9883 1.38508 80.3108 14.2308 87.8573 29.2962C95.4038 14.2308 106.726 1.38508 120.584 -8H230.147C243.687 1.1703 254.808 13.6447 262.349 28.2654C269.891 13.6447 281.012 1.1703 294.552 -8H404.115C417.973 1.38508 429.294 14.2308 436.841 29.2962C444.388 14.2308 455.71 1.38508 469.568 -8H524V25.6011C523.883 25.3737 523.766 25.1458 523.651 24.9174C514.173 43.6518 498.844 58.9235 480.067 68.3293C498.844 77.7351 514.173 93.0068 523.651 111.741C523.766 111.513 523.883 111.285 524 111.058V200.617C523.883 200.39 523.766 200.162 523.651 199.934C514.347 218.324 499.404 233.377 481.097 242.821C499.404 252.266 514.347 267.319 523.651 285.709C523.766 285.481 523.883 285.253 524 285.026V374.585C523.883 374.358 523.766 374.13 523.651 373.902C514.173 392.636 498.844 407.907 480.067 417.313C498.844 426.719 514.173 441.99 523.651 460.725C523.766 460.497 523.883 460.269 524 460.042V516H469.568C472.934 513.721 475.402 511.645 479.049 509.791C460.864 500.272 446.045 485.199 436.841 466.827C427.55 485.374 412.536 500.559 394.113 510.061C397.572 511.846 400.911 513.831 404.115 516H294.552C297.756 513.831 301.095 511.846 304.553 510.061C286.474 500.735 271.676 485.937 262.349 467.857C252.933 486.113 237.937 501.022 219.618 510.331C222.892 512.046 227.104 513.94 230.147 516H120.584C123.95 513.721 126.418 511.645 130.065 509.791C111.88 500.272 97.0608 485.199 87.8573 466.827C78.5663 485.374 63.5516 500.559 45.1293 510.061C48.5883 511.846 51.9274 513.831 55.1309 516H0V460.042C9.50307 441.619 24.6868 426.605 43.2349 417.313C24.6868 408.022 9.50307 393.008 0 374.585V285.026C9.32644 266.946 24.1242 252.148 42.2042 242.821C24.1242 233.495 9.32644 218.697 0 200.617V111.058C9.50307 92.6352 24.6868 77.6204 43.2349 68.3293C24.6868 59.0381 9.50307 44.0235 0 25.6011V-8H55.1309ZM162.057 -2.66005C131.356 2.69935 106.917 26.2792 100.291 56.5267C130.993 51.1673 155.433 27.5875 162.057 -2.66005ZM512.96 499.093C510.31 463.121 482.9 434.034 447.707 428.806C450.357 464.777 477.766 493.864 512.96 499.093ZM392.568 417.313C373.791 407.907 358.462 392.636 348.984 373.902C339.506 392.636 324.177 407.907 305.4 417.313C324.177 426.719 339.506 441.991 348.984 460.725C358.462 441.991 373.791 426.719 392.568 417.313ZM425.987 428.657C390.236 433.46 362.275 462.842 359.663 499.242C395.414 494.439 423.376 465.057 425.987 428.657ZM511.159 347.352C504.201 377.143 479.916 400.271 449.508 405.531C456.465 375.74 480.751 352.612 511.159 347.352ZM436.841 379.328C446.305 360.435 461.707 345.033 480.6 335.569C461.707 326.106 446.305 310.703 436.841 291.811C427.378 310.703 411.975 326.106 393.083 335.569C411.975 345.033 427.378 360.435 436.841 379.328ZM273.013 428.802C308.237 434.022 335.668 463.141 338.298 499.144C303.616 494.157 276.415 466.012 272.872 430.885C272.926 430.192 272.974 429.498 273.013 428.802ZM217.901 417.313C199.124 407.907 183.795 392.636 174.317 373.902C164.839 392.636 149.51 407.907 130.733 417.313C149.51 426.719 164.839 441.99 174.317 460.725C183.795 441.99 199.124 426.719 217.901 417.313ZM184.99 499.334C187.57 462.771 215.725 433.27 251.674 428.609C251.716 429.37 251.767 430.129 251.827 430.885C248.236 466.487 220.343 494.916 184.99 499.334ZM424.217 405.712C417.233 375.478 392.412 352.071 361.434 347.171C368.417 377.405 393.239 400.812 424.217 405.712ZM336.507 347.29C329.54 377.229 305.076 400.452 274.477 405.593C281.444 375.653 305.908 352.43 336.507 347.29ZM262.349 378.297C271.852 359.875 287.036 344.861 305.584 335.569C287.036 326.278 271.852 311.264 262.349 292.841C252.847 311.264 237.662 326.278 219.115 335.569C237.662 344.861 252.847 359.875 262.349 378.297ZM512.96 324.077C510.31 288.105 482.9 259.018 447.707 253.79C450.357 289.761 477.766 318.848 512.96 324.077ZM391.537 242.821C373.231 233.377 358.288 218.324 348.984 199.934C339.68 218.324 324.737 233.377 306.431 242.821C324.737 252.266 339.68 267.319 348.984 285.709C358.288 267.319 373.231 252.266 391.537 242.821ZM425.987 253.641C390.236 258.444 362.275 287.826 359.663 324.226C395.414 319.423 423.376 290.041 425.987 253.641ZM449.262 231.605C480.155 226.365 504.773 202.69 511.405 172.294C480.512 177.534 455.893 201.208 449.262 231.605ZM436.841 204.312C446.305 185.419 461.707 170.017 480.6 160.553C461.707 151.09 446.305 135.687 436.841 116.795C427.378 135.687 411.975 151.09 393.083 160.553C411.975 170.017 427.378 185.419 436.841 204.312ZM163.623 499.039C160.958 463.213 133.732 434.227 98.7262 428.86C101.391 464.686 128.617 493.672 163.623 499.039ZM77.0066 428.609C41.0723 433.268 12.9261 462.748 10.3268 499.289C46.2611 494.63 74.4073 465.151 77.0066 428.609ZM250.274 405.823C243.272 375.3 218.095 351.712 186.742 347.06C193.744 377.583 218.921 401.171 250.274 405.823ZM100.539 405.467C130.755 400.09 154.861 377.057 161.81 347.416C131.595 352.793 107.488 375.826 100.539 405.467ZM87.8573 379.328C97.3212 360.435 112.723 345.033 131.616 335.569C112.723 326.106 97.3212 310.703 87.8573 291.811C78.3935 310.703 62.9914 326.106 44.0985 335.569C62.9914 345.033 78.3935 360.435 87.8573 379.328ZM75.2455 405.768C68.2531 375.389 43.2537 351.892 12.0879 347.115C19.0804 377.493 44.0798 400.991 75.2455 405.768ZM216.871 242.821C198.564 252.266 183.621 267.319 174.317 285.709C165.013 267.319 150.072 252.266 131.764 242.821C150.072 233.377 165.013 218.324 174.317 199.934C183.621 218.324 198.564 233.377 216.871 242.821ZM163.623 324.023C160.958 288.197 133.732 259.211 98.7262 253.844C101.391 289.67 128.617 318.656 163.623 324.023ZM77.0066 253.593C74.4074 290.135 46.2611 319.614 10.3268 324.273C12.9261 287.732 41.0723 258.252 77.0066 253.593ZM273.013 253.786C308.237 259.006 335.668 288.125 338.298 324.128C303.616 319.141 276.415 290.996 272.872 255.869C272.926 255.177 272.974 254.482 273.013 253.786ZM184.99 324.318C187.57 287.755 215.725 258.254 251.674 253.593C251.716 254.354 251.767 255.113 251.827 255.869C248.236 291.471 220.343 319.9 184.99 324.318ZM219.115 160.553C237.662 169.845 252.847 184.859 262.349 203.281C271.852 184.859 287.036 169.845 305.584 160.553C287.036 151.262 271.852 136.248 262.349 117.825C252.847 136.248 237.662 151.262 219.115 160.553ZM250.514 231.889C243.849 200.765 218.336 176.629 186.502 172.009C193.167 203.134 218.68 227.269 250.514 231.889ZM100.291 231.542C130.994 226.183 155.433 202.604 162.057 172.356C131.356 177.715 106.917 201.295 100.291 231.542ZM87.8573 204.312C97.3212 185.419 112.723 170.017 131.616 160.553C112.723 151.09 97.3212 135.687 87.8573 116.795C78.3935 135.687 62.9914 151.09 44.0985 160.553C62.9914 170.017 78.3935 185.419 87.8573 204.312ZM424.459 231.781C417.808 200.944 392.653 176.99 361.192 172.118C367.843 202.954 392.998 226.909 424.459 231.781ZM336.752 172.233C305.668 177.351 280.87 201.121 274.232 231.666C305.316 226.547 330.114 202.778 336.752 172.233ZM75.4868 231.837C43.8386 227.089 18.5047 203.044 11.8466 172.062C43.4948 176.81 68.8287 200.855 75.4868 231.837ZM512.874 149.048C509.771 113.596 482.598 85.0453 447.792 79.8348C450.895 115.287 478.069 143.837 512.874 149.048ZM392.568 68.3293C373.791 58.9235 358.462 43.6519 348.984 24.9174C339.506 43.6519 324.177 58.9235 305.4 68.3293C324.177 77.7352 339.506 93.0068 348.984 111.741C358.462 93.0068 373.791 77.7351 392.568 68.3293ZM425.904 79.6835C390.54 84.4737 362.817 113.318 359.747 149.199C395.11 144.409 422.834 115.565 425.904 79.6835ZM76.9239 79.6365C41.3767 84.2839 13.4692 113.223 10.4094 149.246C45.9567 144.598 73.8642 115.66 76.9239 79.6365ZM98.8126 79.8886C101.928 115.196 128.919 143.647 163.537 148.994C160.422 113.687 133.431 85.2364 98.8126 79.8886ZM130.733 68.3293C149.51 77.7351 164.839 93.0067 174.317 111.741C183.795 93.0067 199.124 77.7351 217.901 68.3293C199.124 58.9236 183.795 43.652 174.317 24.9176C164.839 43.652 149.51 58.9236 130.733 68.3293ZM272.948 79.8086C307.856 84.9513 335.126 113.564 338.213 149.1C303.571 144.079 276.413 115.952 272.872 80.8525C272.899 80.5051 272.924 80.157 272.948 79.8086ZM185.073 149.291C188.116 113.198 216.105 84.2062 251.737 79.6174C251.764 80.0298 251.795 80.4415 251.827 80.8525C248.238 116.428 220.386 144.841 185.073 149.291ZM250.514 56.8737C218.68 52.2529 193.167 28.1179 186.502 -3.00706C218.336 1.61374 243.849 25.7487 250.514 56.8737ZM449.262 56.5892C480.155 51.3493 504.773 27.6741 511.405 -2.72251C480.512 2.51741 455.893 26.1926 449.262 56.5892ZM424.459 56.7655C417.808 25.9284 392.653 1.97396 361.192 -2.89873C367.843 27.9383 392.998 51.8927 424.459 56.7655ZM336.752 -2.78309C305.668 2.33587 280.87 26.1052 274.232 56.6498C305.316 51.5308 330.114 27.7615 336.752 -2.78309ZM11.8466 -2.95379C18.5047 28.0277 43.8386 52.0729 75.4868 56.8205C68.8287 25.839 43.4948 1.79372 11.8466 -2.95379Z" fill="#3374A5"/>
</g>
<g opacity="0.08" clip-path="url(#clip0_89_86)">
<path fill-rule="evenodd" clip-rule="evenodd" d="M562.4 -8C572.052 1.38508 579.938 14.2308 585.194 29.2962C590.45 14.2308 598.337 1.38508 607.989 -8H684.301C693.732 1.1703 701.478 13.6447 706.731 28.2654C711.984 13.6447 719.73 1.1703 729.161 -8H805.473C815.125 1.38508 823.011 14.2308 828.267 29.2962C833.524 14.2308 841.41 1.38508 851.062 -8H888.975V25.6011C888.893 25.3737 888.812 25.1458 888.732 24.9174C882.13 43.6518 871.453 58.9235 858.375 68.3293C871.453 77.7351 882.13 93.0068 888.732 111.741C888.812 111.513 888.893 111.285 888.975 111.058V200.617C888.893 200.39 888.812 200.162 888.732 199.934C882.252 218.324 871.844 233.377 859.092 242.821C871.844 252.266 882.252 267.319 888.732 285.709C888.812 285.481 888.893 285.253 888.975 285.026V374.585C888.893 374.358 888.812 374.13 888.732 373.902C882.13 392.636 871.453 407.907 858.375 417.313C871.453 426.719 882.13 441.99 888.732 460.725C888.812 460.497 888.893 460.269 888.975 460.042V516H851.062C853.407 513.721 855.126 511.645 857.666 509.791C845 500.272 834.678 485.199 828.267 466.827C821.796 485.374 811.338 500.559 798.507 510.061C800.916 511.846 803.242 513.831 805.473 516H729.161C731.392 513.831 733.718 511.846 736.126 510.061C723.534 500.735 713.227 485.937 706.731 467.857C700.172 486.113 689.727 501.022 676.968 510.331C679.248 512.046 682.182 513.94 684.301 516H607.989C610.333 513.721 612.052 511.645 614.593 509.791C601.927 500.272 591.605 485.199 585.194 466.827C578.723 485.374 568.265 500.559 555.433 510.061C557.843 511.846 560.168 513.831 562.4 516H524V460.042C530.619 441.619 541.195 426.605 554.114 417.313C541.195 408.022 530.619 393.008 524 374.585V285.026C530.496 266.946 540.803 252.148 553.396 242.821C540.803 233.495 530.496 218.697 524 200.617V111.058C530.619 92.6352 541.195 77.6204 554.114 68.3293C541.195 59.0381 530.619 44.0235 524 25.6011V-8H562.4ZM636.876 -2.66005C615.492 2.69935 598.47 26.2792 593.855 56.5267C615.239 51.1673 632.262 27.5875 636.876 -2.66005ZM881.286 499.093C879.44 463.121 860.348 434.034 835.835 428.806C837.682 464.777 856.773 493.864 881.286 499.093ZM797.431 417.313C784.352 407.907 773.675 392.636 767.073 373.902C760.472 392.636 749.795 407.907 736.716 417.313C749.795 426.719 760.472 441.991 767.073 460.725C773.675 441.991 784.352 426.719 797.431 417.313ZM820.707 428.657C795.806 433.46 776.331 462.842 774.512 499.242C799.412 494.439 818.889 465.057 820.707 428.657ZM880.031 347.352C875.185 377.143 858.27 400.271 837.09 405.531C841.936 375.74 858.852 352.612 880.031 347.352ZM828.267 379.328C834.86 360.435 845.587 345.033 858.746 335.569C845.587 326.106 834.86 310.703 828.267 291.811C821.676 310.703 810.948 326.106 797.789 335.569C810.948 345.033 821.676 360.435 828.267 379.328ZM714.159 428.802C738.692 434.022 757.799 463.141 759.63 499.144C735.474 494.157 716.528 466.012 714.06 430.885C714.098 430.192 714.131 429.498 714.159 428.802ZM675.772 417.313C662.693 407.907 652.016 392.636 645.415 373.902C638.813 392.636 628.136 407.907 615.058 417.313C628.136 426.719 638.813 441.99 645.415 460.725C652.016 441.99 662.693 426.719 675.772 417.313ZM652.849 499.334C654.646 462.771 674.256 433.27 699.295 428.609C699.325 429.37 699.36 430.129 699.402 430.885C696.9 466.487 677.473 494.916 652.849 499.334ZM819.474 405.712C814.61 375.478 797.322 352.071 775.745 347.171C780.609 377.405 797.898 400.812 819.474 405.712ZM758.383 347.29C753.531 377.229 736.491 400.452 715.178 405.593C720.03 375.653 737.07 352.43 758.383 347.29ZM706.731 378.297C713.35 359.875 723.925 344.861 736.845 335.569C723.925 326.278 713.35 311.264 706.731 292.841C700.112 311.264 689.536 326.278 676.617 335.569C689.536 344.861 700.112 359.875 706.731 378.297ZM881.286 324.077C879.44 288.105 860.348 259.018 835.835 253.79C837.682 289.761 856.773 318.848 881.286 324.077ZM796.712 242.821C783.962 233.377 773.554 218.324 767.073 199.934C760.593 218.324 750.185 233.377 737.435 242.821C750.185 252.266 760.593 267.319 767.073 285.709C773.554 267.319 783.962 252.266 796.712 242.821ZM820.707 253.641C795.806 258.444 776.331 287.826 774.512 324.226C799.412 319.423 818.889 290.041 820.707 253.641ZM836.919 231.605C858.436 226.365 875.583 202.69 880.203 172.294C858.685 177.534 841.537 201.208 836.919 231.605ZM828.267 204.312C834.86 185.419 845.587 170.017 858.746 160.553C845.587 151.09 834.86 135.687 828.267 116.795C821.676 135.687 810.948 151.09 797.789 160.553C810.948 170.017 821.676 185.419 828.267 204.312ZM637.966 499.039C636.11 463.213 617.147 434.227 592.765 428.86C594.621 464.686 613.584 493.672 637.966 499.039ZM577.636 428.609C552.608 433.268 533.003 462.748 531.193 499.289C556.222 494.63 575.826 465.151 577.636 428.609ZM698.32 405.823C693.443 375.3 675.907 351.712 654.069 347.06C658.946 377.583 676.482 401.171 698.32 405.823ZM594.027 405.467C615.073 400.09 631.863 377.057 636.704 347.416C615.658 352.793 598.867 375.826 594.027 405.467ZM585.194 379.328C591.786 360.435 602.513 345.033 615.673 335.569C602.513 326.106 591.786 310.703 585.194 291.811C578.602 310.703 567.875 326.106 554.715 335.569C567.875 345.033 578.602 360.435 585.194 379.328ZM576.41 405.768C571.539 375.389 554.127 351.892 532.419 347.115C537.29 377.493 554.702 400.991 576.41 405.768ZM675.054 242.821C662.303 252.266 651.895 267.319 645.415 285.709C638.934 267.319 628.527 252.266 615.776 242.821C628.527 233.377 638.934 218.324 645.415 199.934C651.895 218.324 662.303 233.377 675.054 242.821ZM637.966 324.023C636.11 288.197 617.147 259.211 592.765 253.844C594.621 289.67 613.584 318.656 637.966 324.023ZM577.636 253.593C575.826 290.135 556.222 319.614 531.193 324.273C533.003 287.732 552.608 258.252 577.636 253.593ZM714.159 253.786C738.692 259.006 757.799 288.125 759.63 324.128C735.474 319.141 716.528 290.996 714.06 255.869C714.098 255.177 714.131 254.482 714.159 253.786ZM652.849 324.318C654.646 287.755 674.256 258.254 699.295 253.593C699.325 254.354 699.36 255.113 699.402 255.869C696.9 291.471 677.473 319.9 652.849 324.318ZM676.617 160.553C689.536 169.845 700.112 184.859 706.731 203.281C713.35 184.859 723.925 169.845 736.845 160.553C723.925 151.262 713.35 136.248 706.731 117.825C700.112 136.248 689.536 151.262 676.617 160.553ZM698.487 231.889C693.845 200.765 676.075 176.629 653.902 172.009C658.544 203.134 676.314 227.269 698.487 231.889ZM593.855 231.542C615.239 226.183 632.262 202.604 636.876 172.356C615.492 177.715 598.47 201.295 593.855 231.542ZM585.194 204.312C591.786 185.419 602.513 170.017 615.673 160.553C602.513 151.09 591.786 135.687 585.194 116.795C578.602 135.687 567.875 151.09 554.715 160.553C567.875 170.017 578.602 185.419 585.194 204.312ZM819.643 231.781C815.011 200.944 797.49 176.99 775.577 172.118C780.209 202.954 797.73 226.909 819.643 231.781ZM758.553 172.233C736.903 177.351 719.631 201.121 715.008 231.666C736.658 226.547 753.93 202.778 758.553 172.233ZM576.578 231.837C554.534 227.089 536.889 203.044 532.251 172.062C554.295 176.81 571.94 200.855 576.578 231.837ZM881.226 149.048C879.065 113.596 860.138 85.0453 835.895 79.8348C838.056 115.287 856.984 143.837 881.226 149.048ZM797.431 68.3293C784.352 58.9235 773.675 43.6519 767.073 24.9174C760.472 43.6519 749.795 58.9235 736.716 68.3293C749.795 77.7352 760.472 93.0068 767.073 111.741C773.675 93.0068 784.352 77.7351 797.431 68.3293ZM820.65 79.6835C796.018 84.4737 776.708 113.318 774.57 149.199C799.201 144.409 818.512 115.565 820.65 79.6835ZM577.579 79.6365C552.82 84.2839 533.382 113.223 531.25 149.246C556.01 144.598 575.448 115.66 577.579 79.6365ZM592.825 79.8886C594.995 115.196 613.794 143.647 637.907 148.994C635.736 113.687 616.937 85.2364 592.825 79.8886ZM615.058 68.3293C628.136 77.7351 638.813 93.0067 645.415 111.741C652.016 93.0067 662.693 77.7351 675.772 68.3293C662.693 58.9236 652.016 43.652 645.415 24.9176C638.813 43.652 628.136 58.9236 615.058 68.3293ZM714.113 79.8086C738.427 84.9513 757.421 113.564 759.571 149.1C735.442 144.079 716.527 115.952 714.06 80.8525C714.079 80.5051 714.097 80.157 714.113 79.8086ZM652.906 149.291C655.026 113.198 674.521 84.2062 699.339 79.6174C699.358 80.0298 699.379 80.4415 699.402 80.8525C696.902 116.428 677.503 144.841 652.906 149.291ZM698.487 56.8737C676.314 52.2529 658.544 28.1179 653.902 -3.00706C676.075 1.61374 693.845 25.7487 698.487 56.8737ZM836.919 56.5892C858.436 51.3493 875.583 27.6741 880.203 -2.72251C858.685 2.51741 841.537 26.1926 836.919 56.5892ZM819.643 56.7655C815.011 25.9284 797.49 1.97396 775.577 -2.89873C780.209 27.9383 797.73 51.8927 819.643 56.7655ZM758.553 -2.78309C736.903 2.33587 719.631 26.1052 715.008 56.6498C736.658 51.5308 753.93 27.7615 758.553 -2.78309ZM532.251 -2.95379C536.889 28.0277 554.534 52.0729 576.578 56.8205C571.94 25.839 554.295 1.79372 532.251 -2.95379Z" fill="#3374A5"/>
</g>
<defs>
<clipPath id="clip0_89_86">
<rect width="280" height="524" fill="white" transform="translate(524 -8)"/>
</clipPath>
</defs>
</svg>
